<svg width="33" height="34" viewBox="0 0 33 34" fill="none" xmlns="http://www.w3.org/2000/svg">
<path d="M4.43213 8.95641V27.7291C4.43213 28.4404 4.71468 29.1225 5.21762 29.6255C5.72055 30.1284 6.40268 30.411 7.11395 30.411H25.8867C26.5979 30.411 27.2801 30.1284 27.783 29.6255C28.2859 29.1225 28.5685 28.4404 28.5685 27.7291V8.95641C28.5685 8.24515 28.2859 7.56302 27.783 7.06008C27.2801 6.55714 26.5979 6.27459 25.8867 6.27459H23.2049V3.59277H20.523V6.27459H12.4776V3.59277H9.79577V6.27459H7.11395C6.40268 6.27459 5.72055 6.55714 5.21762 7.06008C4.71468 7.56302 4.43213 8.24515 4.43213 8.95641ZM25.8867 27.7291H7.11395V11.6382H25.8867V27.7291Z" fill="#171717"/>
</svg>
