<svg width="601" height="174" viewBox="0 0 601 174" fill="none" xmlns="http://www.w3.org/2000/svg">
<path d="M135.289 0.018219H119.613C118.868 0.018219 118.265 0.621438 118.265 1.36555V89.2702C118.265 90.0143 118.868 90.6175 119.613 90.6175H135.289C136.033 90.6175 136.636 90.0143 136.636 89.2702V1.36555C136.636 0.621438 136.033 0.018219 135.289 0.018219Z" fill="white"/>
<path d="M473.234 0.018219H457.557C456.813 0.018219 456.21 0.621438 456.21 1.36555V89.2702C456.21 90.0143 456.813 90.6175 457.557 90.6175H473.234C473.978 90.6175 474.581 90.0143 474.581 89.2702V1.36555C474.581 0.621438 473.978 0.018219 473.234 0.018219Z" fill="white"/>
<path d="M242.53 0.018219H220.763C220.654 0.018219 220.544 0.0637366 220.472 0.145669L192.615 29.3683C191.768 30.2605 190.584 30.7612 189.355 30.7612H181.772C180.479 30.7612 179.442 29.7143 179.442 28.4306V1.37466C179.442 0.628167 178.841 0.0273176 178.094 0.0273176H162.418C161.671 0.0273176 161.07 0.628167 161.07 1.37466V89.2884C161.07 90.0349 161.671 90.6357 162.418 90.6357H178.094C178.841 90.6357 179.442 90.0349 179.442 89.2884V51.4719C179.442 50.1792 180.489 49.1414 181.772 49.1414H191.804C193.325 49.1414 194.736 49.9061 195.564 51.1715L210.549 73.9852L221.072 90.0258C221.318 90.4081 221.746 90.6357 222.201 90.6357H240.964C242.047 90.6357 242.685 89.434 242.084 88.5328L208.455 38.736C207.69 37.5889 207.818 36.0686 208.81 35.0854L242.821 0.71009C243.076 0.455188 242.894 0.018219 242.53 0.018219Z" fill="white"/>
<path d="M308.586 0.609941C308.44 0.245796 308.103 0 307.712 0H287.465C287.092 0 286.737 0.245796 286.591 0.609941L253.035 88.7786C252.698 89.6616 253.354 90.6084 254.292 90.6084H270.278C270.842 90.6084 271.352 90.2534 271.543 89.7163L273.71 83.6806L279.299 68.0496C279.399 67.7856 279.645 67.6036 279.937 67.6036H315.104C315.386 67.6036 315.641 67.7856 315.741 68.0496L319.446 78.4187L321.44 83.981L323.507 89.7163C323.698 90.2534 324.207 90.6084 324.772 90.6084H341.35C342.296 90.6084 342.943 89.6616 342.606 88.7786L308.577 0.609941H308.586ZM305.636 49.2324H289.413C287.766 49.2324 286.619 47.6029 287.174 46.0553L296.25 20.6652C296.678 19.4636 298.362 19.4636 298.808 20.6652L307.876 46.0553C308.431 47.6029 307.284 49.2324 305.636 49.2324Z" fill="white"/>
<path d="M496.393 90.6084H512.379C512.944 90.6084 513.454 90.2534 513.645 89.7163L515.811 83.6806L521.438 67.9586C521.51 67.7401 521.72 67.6036 521.947 67.6036H557.306C557.533 67.6036 557.734 67.7492 557.816 67.9586L561.557 78.4187L563.551 83.981L565.617 89.7163C565.809 90.2534 566.318 90.6084 566.883 90.6084H583.461C584.407 90.6084 585.054 89.6616 584.717 88.7786L550.687 0.609941C550.542 0.245796 550.205 0 549.814 0H529.567C529.194 0 528.839 0.245796 528.693 0.609941L495.137 88.7786C494.8 89.6616 495.456 90.6084 496.393 90.6084ZM529.276 46.0553L531.952 38.5812L538.352 20.6652C538.78 19.4636 540.464 19.4636 540.91 20.6652L547.31 38.5812L549.977 46.0553C550.533 47.6029 549.386 49.2324 547.738 49.2324H531.515C529.868 49.2324 528.72 47.6029 529.276 46.0553Z" fill="white"/>
<path d="M90.927 0.018376H74.8955C74.1491 0.018376 73.5482 0.619211 73.5482 1.36571V29.414C73.5482 30.1514 72.9383 30.7613 72.2009 30.7613H37.252C36.5146 30.7704 35.9047 30.1696 35.9047 29.4231V1.36571C35.9047 0.619211 35.3039 0.018376 34.5574 0.018376H17.6519C16.9054 0.018376 16.3046 0.619211 16.3046 1.36571V29.4231C16.3046 30.1696 15.7038 30.7704 14.9573 30.7704H1.35644C0.619048 30.7704 0.0091087 31.3622 0.0091087 32.1178V47.7851C0.0091087 48.5225 0.619048 49.1324 1.35644 49.1324H14.9573C15.7038 49.1324 16.3046 49.7333 16.3046 50.4798V60.1387C16.3046 73.3299 10.014 80.9041 0.245798 85.2921C0.10014 85.3558 -3.8147e-06 85.4923 -3.8147e-06 85.638V103.572C-3.8147e-06 103.8 0.191178 103.973 0.418769 103.973C20.0553 103.754 35.8956 82.3425 35.8956 62.6604V50.4707C35.8956 49.7333 36.5055 49.1233 37.2429 49.1233H72.1918C72.9292 49.1233 73.5391 49.7333 73.5391 50.4707V89.2703C73.5391 90.0168 74.1399 90.6177 74.8864 90.6177H90.9179C91.6644 90.6177 92.2653 90.0168 92.2653 89.2703V1.35661C92.2653 0.610113 91.6644 0.00927734 90.9179 0.00927734L90.927 0.018376Z" fill="white"/>
<path d="M600.184 128.889L593.939 112.685C593.702 112.075 592.919 111.911 592.455 112.366C564.862 139.413 524.041 145.003 498.469 140.369C470.603 135.307 447.735 120.122 430.52 95.233C422.627 83.8262 417.747 72.8381 415.098 65.8192C414.67 64.6904 415.071 63.3976 416.1 62.724C420.05 60.1112 423.41 56.5699 425.922 52.3914C429.272 46.82 431.594 41.7037 431.594 32.1722C431.594 23.9516 428.735 13.9285 423.328 9.10361C417.911 4.27869 409.991 0.00909424 399.258 0.00909424H360.795C359.311 0.00909424 358.1 1.21987 358.1 2.70376V89.2701C358.1 90.0166 358.701 90.6175 359.448 90.6175H375.124C375.871 90.6175 376.471 90.0166 376.471 89.2701V68.6231C376.471 68.0587 376.927 67.6035 377.491 67.6035H394.242C395.116 67.6035 395.899 68.1588 396.181 68.9873C398.83 76.6616 404.492 90.6084 414.607 105.384C434.525 134.461 462.364 152.986 495.11 158.922C501.71 160.124 509.066 160.806 516.886 160.806C543.213 160.806 574.767 153.05 599.674 131.01C600.275 130.482 600.475 129.627 600.184 128.88V128.889ZM398.284 49.2324H379.521C377.837 49.2324 376.462 47.8577 376.462 46.1918V16.4684C376.462 15.731 377.072 15.1211 377.81 15.1211H398.284C408.935 15.1211 414.27 23.3781 414.27 32.1722C414.27 40.9663 408.935 49.2415 398.284 49.2415V49.2324Z" fill="white"/>
<path d="M38.7723 134.543C36.8606 133.377 34.7303 132.804 32.3816 132.804C30.3606 132.804 28.5581 133.222 26.9832 134.051C25.4082 134.879 24.1701 135.963 23.278 137.283V126.085H16.3137V160.816H23.278V156.883C24.2066 158.176 25.4446 159.232 26.9832 160.042C28.5217 160.852 30.3242 161.262 32.3816 161.262C34.7394 161.262 36.8697 160.661 38.7723 159.468C40.675 158.276 42.1862 156.591 43.2969 154.416C44.4075 152.24 44.9628 149.746 44.9628 146.923C44.9628 144.101 44.4075 141.625 43.2969 139.486C42.1862 137.346 40.675 135.699 38.7723 134.533V134.543ZM36.8333 151.311C36.1505 152.54 35.2584 153.478 34.1477 154.152C33.0371 154.816 31.8354 155.144 30.5427 155.144C29.25 155.144 28.0938 154.816 26.9832 154.17C25.8725 153.524 24.9713 152.586 24.2976 151.357C23.6148 150.128 23.278 148.69 23.278 147.024C23.278 145.358 23.6148 143.928 24.2976 142.699C24.9804 141.47 25.8725 140.533 26.9832 139.886C28.0938 139.24 29.2773 138.912 30.5427 138.912C31.8081 138.912 33.0371 139.231 34.1477 139.859C35.2584 140.487 36.1505 141.407 36.8333 142.617C37.5161 143.828 37.8529 145.257 37.8529 146.923C37.8529 148.589 37.5161 150.073 36.8333 151.302V151.311Z" fill="#C1C2C4"/>
<path d="M63.78 152.504L56.661 133.25H48.8501L59.8928 160.115L53.9208 173.852H61.3402L78.4004 133.25H70.9901L63.78 152.504Z" fill="#C1C2C4"/>
<path d="M128.452 121.807C127.223 121.807 126.204 122.198 125.393 122.972C124.583 123.755 124.173 124.72 124.173 125.885C124.173 127.05 124.583 128.015 125.393 128.798C126.204 129.581 127.223 129.963 128.452 129.963C129.681 129.963 130.701 129.572 131.511 128.798C132.321 128.015 132.731 127.05 132.731 125.885C132.731 124.72 132.321 123.755 131.511 122.972C130.701 122.198 129.681 121.807 128.452 121.807Z" fill="#C1C2C4"/>
<path d="M131.884 133.25H124.92V160.816H131.884V133.25Z" fill="#C1C2C4"/>
<path d="M174.972 132.849C172.978 132.849 171.13 133.332 169.428 134.297C167.716 135.262 166.414 136.536 165.522 138.129C164.594 136.436 163.283 135.134 161.589 134.224C159.896 133.314 157.975 132.849 155.818 132.849C154.124 132.849 152.577 133.186 151.166 133.851C149.755 134.515 148.608 135.426 147.706 136.591V133.259H140.742V160.825H147.706V145.594C147.706 143.437 148.262 141.789 149.372 140.642C150.483 139.495 152.003 138.921 153.924 138.921C155.845 138.921 157.311 139.495 158.403 140.642C159.496 141.789 160.042 143.437 160.042 145.594V160.825H167.006V145.594C167.006 143.437 167.561 141.789 168.672 140.642C169.783 139.495 171.285 138.921 173.178 138.921C175.072 138.921 176.565 139.495 177.657 140.642C178.75 141.789 179.296 143.437 179.296 145.594V160.825H186.26V144.657C186.26 140.942 185.222 138.047 183.147 135.972C181.071 133.896 178.349 132.858 174.963 132.858L174.972 132.849Z" fill="#C1C2C4"/>
<path d="M213.953 134.497C211.878 133.368 209.538 132.804 206.916 132.804C204.295 132.804 201.791 133.386 199.697 134.543C197.612 135.708 195.983 137.365 194.818 139.522C193.652 141.68 193.079 144.183 193.079 147.033C193.079 149.882 193.671 152.34 194.845 154.498C196.019 156.655 197.667 158.321 199.77 159.496C201.873 160.67 204.258 161.262 206.907 161.262C210.194 161.262 212.961 160.406 215.219 158.704C217.477 156.992 218.997 154.816 219.798 152.158H212.287C211.195 154.379 209.356 155.49 206.762 155.49C204.968 155.49 203.457 154.926 202.237 153.797C201.008 152.668 200.316 151.111 200.152 149.117H220.299C220.435 148.316 220.499 147.424 220.499 146.432C220.499 143.746 219.925 141.361 218.778 139.295C217.631 137.228 216.029 135.626 213.953 134.497ZM200.198 144.447C200.462 142.59 201.181 141.143 202.365 140.096C203.539 139.049 204.995 138.53 206.716 138.53C208.537 138.53 210.084 139.067 211.341 140.15C212.597 141.225 213.243 142.663 213.28 144.456H200.198V144.447Z" fill="#C1C2C4"/>
<path d="M247.418 137.082C246.453 135.79 245.161 134.752 243.54 133.969C241.911 133.195 240.208 132.804 238.415 132.804C236.057 132.804 233.918 133.386 231.997 134.543C230.076 135.708 228.556 137.365 227.445 139.522C226.334 141.68 225.779 144.147 225.779 146.933C225.779 149.718 226.334 152.249 227.445 154.425C228.556 156.591 230.076 158.276 231.997 159.477C233.918 160.67 236.048 161.271 238.369 161.271C240.427 161.271 242.229 160.861 243.795 160.024C245.352 159.195 246.563 158.103 247.428 156.737V160.816H254.492V126.085H247.428V137.082H247.418ZM246.472 151.384C245.807 152.595 244.915 153.524 243.786 154.17C242.657 154.816 241.446 155.144 240.154 155.144C238.861 155.144 237.705 154.807 236.594 154.152C235.484 153.487 234.591 152.531 233.909 151.293C233.226 150.046 232.889 148.599 232.889 146.942C232.889 145.285 233.226 143.846 233.909 142.636C234.591 141.425 235.474 140.505 236.567 139.877C237.659 139.249 238.852 138.93 240.154 138.93C241.456 138.93 242.657 139.258 243.786 139.905C244.915 140.551 245.807 141.479 246.472 142.69C247.136 143.901 247.464 145.349 247.464 147.042C247.464 148.735 247.127 150.192 246.472 151.393V151.384Z" fill="#C1C2C4"/>
<path d="M282.941 134.57C280.783 133.386 278.38 132.804 275.731 132.804C273.082 132.804 270.669 133.395 268.521 134.57C266.363 135.744 264.661 137.41 263.423 139.568C262.175 141.725 261.556 144.211 261.556 147.033C261.556 149.855 262.157 152.34 263.368 154.498C264.579 156.655 266.245 158.321 268.366 159.496C270.487 160.67 272.881 161.262 275.53 161.262C278.18 161.262 280.647 160.67 282.822 159.496C284.998 158.321 286.719 156.655 287.993 154.498C289.268 152.34 289.905 149.855 289.905 147.033C289.905 144.211 289.286 141.725 288.039 139.568C286.792 137.41 285.098 135.744 282.941 134.57ZM281.748 151.512C281.084 152.741 280.201 153.66 279.09 154.27C277.979 154.88 276.796 155.19 275.53 155.19C273.537 155.19 271.889 154.489 270.578 153.077C269.267 151.666 268.612 149.655 268.612 147.033C268.612 144.411 269.285 142.399 270.624 140.988C271.971 139.577 273.637 138.876 275.621 138.876C277.606 138.876 279.29 139.577 280.674 140.988C282.049 142.399 282.74 144.411 282.74 147.033C282.74 148.79 282.404 150.283 281.748 151.512Z" fill="#C1C2C4"/>
<path d="M316.67 134.57C314.512 133.386 312.109 132.804 309.46 132.804C306.81 132.804 304.398 133.395 302.25 134.57C300.092 135.744 298.39 137.41 297.151 139.568C295.904 141.725 295.285 144.211 295.285 147.033C295.285 149.855 295.886 152.34 297.097 154.498C298.308 156.655 299.974 158.321 302.095 159.496C304.216 160.67 306.61 161.262 309.259 161.262C311.908 161.262 314.376 160.67 316.551 159.496C318.727 158.321 320.448 156.655 321.722 154.498C322.997 152.34 323.634 149.855 323.634 147.033C323.634 144.211 323.015 141.725 321.768 139.568C320.521 137.41 318.827 135.744 316.67 134.57ZM315.477 151.512C314.813 152.741 313.929 153.66 312.819 154.27C311.708 154.88 310.525 155.19 309.259 155.19C307.266 155.19 305.618 154.489 304.307 153.077C302.996 151.666 302.341 149.655 302.341 147.033C302.341 144.411 303.014 142.399 304.352 140.988C305.7 139.577 307.366 138.876 309.35 138.876C311.335 138.876 313.028 139.577 314.403 140.988C315.778 142.399 316.469 144.411 316.469 147.033C316.469 148.79 316.142 150.283 315.477 151.512Z" fill="#C1C2C4"/>
<path d="M341.231 134.096C339.784 134.925 338.619 136.072 337.726 137.529V133.25H330.762V160.816H337.726V147.078C337.726 144.52 338.282 142.736 339.392 141.707C340.503 140.678 342.151 140.169 344.345 140.169H346.184V132.849C344.327 132.849 342.679 133.268 341.231 134.096Z" fill="#C1C2C4"/>
<path d="M108.597 126.085H101.633V133.25H96.2982V138.876H101.633V153.505C101.633 157.538 104.901 160.816 108.943 160.816H115.589V153.851H109.772C109.125 153.851 108.597 153.323 108.597 152.677V138.876H115.589V133.25H108.597V126.085Z" fill="#C1C2C4"/>
</svg>
