<svg width="1920" height="633" viewBox="0 0 1920 633" fill="none" xmlns="http://www.w3.org/2000/svg">
<g filter="url(#filter0_f_2979_396)">
<path fill-rule="evenodd" clip-rule="evenodd" d="M0 260L18 308C36 356 71 452 107 529C142 606 178 663 213 682C249 702 284 682 320 644C356 606 391 548 427 577C462 606 498 721 533 750C569 778 604 721 640 692C676 663 711 663 747 663C782 663 818 663 853 615C889 567 924 471 960 423C996 375 1031 375 1067 433C1102 490 1138 606 1173 673C1209 740 1244 759 1280 682C1316 606 1351 433 1387 423C1422 414 1458 567 1493 577C1529 586 1564 452 1600 452C1636 452 1671 586 1707 644C1742 702 1778 682 1813 634C1849 586 1884 510 1902 471L1920 433V836H1902C1884 836 1849 836 1813 836C1778 836 1742 836 1707 836C1671 836 1636 836 1600 836C1564 836 1529 836 1493 836C1458 836 1422 836 1387 836C1351 836 1316 836 1280 836C1244 836 1209 836 1173 836C1138 836 1102 836 1067 836C1031 836 996 836 960 836C924 836 889 836 853 836C818 836 782 836 747 836C711 836 676 836 640 836C604 836 569 836 533 836C498 836 462 836 427 836C391 836 356 836 320 836C284 836 249 836 213 836C178 836 142 836 107 836C71 836 36 836 18 836H0V260Z" fill="url(#paint0_linear_2979_396)"/>
<path fill-rule="evenodd" clip-rule="evenodd" d="M0 260L18 308C36 356 71 452 107 529C142 606 178 663 213 682C249 702 284 682 320 644C356 606 391 548 427 577C462 606 498 721 533 750C569 778 604 721 640 692C676 663 711 663 747 663C782 663 818 663 853 615C889 567 924 471 960 423C996 375 1031 375 1067 433C1102 490 1138 606 1173 673C1209 740 1244 759 1280 682C1316 606 1351 433 1387 423C1422 414 1458 567 1493 577C1529 586 1564 452 1600 452C1636 452 1671 586 1707 644C1742 702 1778 682 1813 634C1849 586 1884 510 1902 471L1920 433V836H1902C1884 836 1849 836 1813 836C1778 836 1742 836 1707 836C1671 836 1636 836 1600 836C1564 836 1529 836 1493 836C1458 836 1422 836 1387 836C1351 836 1316 836 1280 836C1244 836 1209 836 1173 836C1138 836 1102 836 1067 836C1031 836 996 836 960 836C924 836 889 836 853 836C818 836 782 836 747 836C711 836 676 836 640 836C604 836 569 836 533 836C498 836 462 836 427 836C391 836 356 836 320 836C284 836 249 836 213 836C178 836 142 836 107 836C71 836 36 836 18 836H0V260Z" fill="url(#paint1_linear_2979_396)"/>
<path fill-rule="evenodd" clip-rule="evenodd" d="M0 260L18 308C36 356 71 452 107 529C142 606 178 663 213 682C249 702 284 682 320 644C356 606 391 548 427 577C462 606 498 721 533 750C569 778 604 721 640 692C676 663 711 663 747 663C782 663 818 663 853 615C889 567 924 471 960 423C996 375 1031 375 1067 433C1102 490 1138 606 1173 673C1209 740 1244 759 1280 682C1316 606 1351 433 1387 423C1422 414 1458 567 1493 577C1529 586 1564 452 1600 452C1636 452 1671 586 1707 644C1742 702 1778 682 1813 634C1849 586 1884 510 1902 471L1920 433V836H1902C1884 836 1849 836 1813 836C1778 836 1742 836 1707 836C1671 836 1636 836 1600 836C1564 836 1529 836 1493 836C1458 836 1422 836 1387 836C1351 836 1316 836 1280 836C1244 836 1209 836 1173 836C1138 836 1102 836 1067 836C1031 836 996 836 960 836C924 836 889 836 853 836C818 836 782 836 747 836C711 836 676 836 640 836C604 836 569 836 533 836C498 836 462 836 427 836C391 836 356 836 320 836C284 836 249 836 213 836C178 836 142 836 107 836C71 836 36 836 18 836H0V260Z" stroke="black"/>
</g>
<defs>
<filter id="filter0_f_2979_396" x="-260" y="0" width="2440" height="1096" filterUnits="userSpaceOnUse" color-interpolation-filters="sRGB">
<feFlood flood-opacity="0" result="BackgroundImageFix"/>
<feBlend mode="normal" in="SourceGraphic" in2="BackgroundImageFix" result="shape"/>
<feGaussianBlur stdDeviation="130" result="effect1_foregroundBlur_2979_396"/>
</filter>
<linearGradient id="paint0_linear_2979_396" x1="0" y1="836" x2="0" y2="408" gradientUnits="userSpaceOnUse">
<stop stop-color="#10AF14"/>
<stop offset="0.6" stop-color="#178DDD"/>
</linearGradient>
<linearGradient id="paint1_linear_2979_396" x1="1920" y1="408" x2="0" y2="408" gradientUnits="userSpaceOnUse">
<stop stop-color="#81F483"/>
<stop offset="1" stop-color="#178DDD" stop-opacity="0"/>
</linearGradient>
</defs>
</svg>
