<svg width="128" height="40" viewBox="0 0 128 40" fill="none" xmlns="http://www.w3.org/2000/svg">
<path d="M117.41 1.5C122.378 1.50008 126.42 5.5415 126.42 10.5098V26.2998C126.42 31.2682 122.379 35.3095 117.41 35.3096H10.2002C9.70603 35.3096 9.24764 35.4736 8.875 35.7803L8.7207 35.9209L7.11035 37.5303C6.51356 38.1271 5.69122 38.5098 4.79004 38.5098C2.97162 38.5098 1.5 37.0382 1.5 35.2197V10.5098C1.50013 5.54152 5.54152 1.50013 10.5098 1.5H117.41Z" fill="#178DDD" stroke="white" stroke-width="3"/>
<path d="M22.0114 24V12.3636H29.8523V14.392H24.4716V17.1648H29.4489V19.1932H24.4716V21.9716H29.875V24H22.0114ZM41.5412 12.3636V24H39.4162L34.3537 16.6761H34.2685V24H31.8082V12.3636H33.9673L38.9901 19.6818H39.0923V12.3636H41.5412ZM43.1307 14.392V12.3636H52.6875V14.392H49.125V24H46.6932V14.392H43.1307ZM54.2614 24V12.3636H58.8523C59.7311 12.3636 60.4811 12.5208 61.1023 12.8352C61.7273 13.1458 62.2027 13.5871 62.5284 14.1591C62.858 14.7273 63.0227 15.3958 63.0227 16.1648C63.0227 16.9375 62.8561 17.6023 62.5227 18.1591C62.1894 18.7121 61.7064 19.1364 61.0739 19.4318C60.4451 19.7273 59.6837 19.875 58.7898 19.875H55.7159V17.8977H58.392C58.8617 17.8977 59.2519 17.8333 59.5625 17.7045C59.8731 17.5758 60.1042 17.3826 60.2557 17.125C60.411 16.8674 60.4886 16.5473 60.4886 16.1648C60.4886 15.7784 60.411 15.4527 60.2557 15.1875C60.1042 14.9223 59.8712 14.7216 59.5568 14.5852C59.2462 14.4451 58.8542 14.375 58.3807 14.375H56.7216V24H54.2614ZM60.5455 18.7045L63.4375 24H60.7216L57.892 18.7045H60.5455ZM66.767 24H64.1307L68.1477 12.3636H71.3182L75.3295 24H72.6932L69.7784 15.0227H69.6875L66.767 24ZM66.6023 19.4261H72.8295V21.3466H66.6023V19.4261ZM86.4631 12.3636V24H84.3381L79.2756 16.6761H79.1903V24H76.7301V12.3636H78.8892L83.9119 19.6818H84.0142V12.3636H86.4631ZM98.7628 16.4375H96.2741C96.2287 16.1155 96.1359 15.8295 95.9957 15.5795C95.8556 15.3258 95.6757 15.1098 95.456 14.9318C95.2363 14.7538 94.9825 14.6174 94.6946 14.5227C94.4105 14.428 94.1018 14.3807 93.7685 14.3807C93.1662 14.3807 92.6416 14.5303 92.1946 14.8295C91.7476 15.125 91.401 15.5568 91.1548 16.125C90.9086 16.6894 90.7855 17.375 90.7855 18.1818C90.7855 19.0114 90.9086 19.7083 91.1548 20.2727C91.4048 20.8371 91.7533 21.2633 92.2003 21.5511C92.6473 21.839 93.1643 21.983 93.7514 21.983C94.081 21.983 94.3859 21.9394 94.6662 21.8523C94.9503 21.7652 95.2022 21.6383 95.4219 21.4716C95.6416 21.3011 95.8234 21.0947 95.9673 20.8523C96.1151 20.6098 96.2173 20.3333 96.2741 20.0227L98.7628 20.0341C98.6984 20.5682 98.5374 21.0833 98.2798 21.5795C98.026 22.072 97.6832 22.5133 97.2514 22.9034C96.8234 23.2898 96.312 23.5966 95.7173 23.8239C95.1264 24.0473 94.4579 24.1591 93.7116 24.1591C92.6738 24.1591 91.7457 23.9242 90.9276 23.4545C90.1132 22.9848 89.4692 22.3049 88.9957 21.4148C88.526 20.5246 88.2912 19.447 88.2912 18.1818C88.2912 16.9129 88.5298 15.8333 89.0071 14.9432C89.4844 14.053 90.1321 13.375 90.9503 12.9091C91.7685 12.4394 92.6889 12.2045 93.7116 12.2045C94.3859 12.2045 95.0109 12.2992 95.5866 12.4886C96.1662 12.678 96.6795 12.9545 97.1264 13.3182C97.5734 13.678 97.937 14.1193 98.2173 14.642C98.5014 15.1648 98.6832 15.7633 98.7628 16.4375ZM100.527 24V12.3636H108.368V14.392H102.987V17.1648H107.964V19.1932H102.987V21.9716H108.391V24H100.527Z" fill="white"/>
</svg>
