<svg width="41" height="41" viewBox="0 0 41 41" fill="none" xmlns="http://www.w3.org/2000/svg">
<g clip-path="url(#clip0_2919_31988)">
<path d="M20.3 39.6C9.66 39.6 1 30.94 1 20.3C1 9.66 9.66 1 20.3 1C30.94 1 39.6 9.66 39.6 20.3C39.6 30.94 30.94 39.6 20.3 39.6Z" fill="#EA1552"/>
<path d="M20.3 2C30.41 2 38.6 10.19 38.6 20.3C38.6 30.41 30.41 38.6 20.3 38.6C10.19 38.6 2 30.41 2 20.3C2 10.19 10.19 2 20.3 2ZM20.3 0C9.11 0 0 9.11 0 20.3C0 31.49 9.11 40.6 20.3 40.6C31.49 40.6 40.6 31.49 40.6 20.3C40.6 9.11 31.5 0 20.3 0Z" fill="white"/>
<path d="M10.24 24.4098C9.69005 24.0798 9.27005 23.6298 8.98005 23.0498C8.69005 22.4698 8.55005 21.8198 8.55005 21.0898C8.55005 20.3598 8.69005 19.7098 8.98005 19.1298C9.27005 18.5498 9.69005 18.0998 10.24 17.7698C10.79 17.4398 11.44 17.2798 12.2 17.2798C12.96 17.2798 13.61 17.4398 14.15 17.7698C14.7 18.0998 15.11 18.5598 15.4 19.1598C15.69 19.7598 15.83 20.4598 15.83 21.2598V21.6798H10.41C10.48 22.2298 10.68 22.6598 10.98 22.9698C11.28 23.2798 11.69 23.4298 12.18 23.4298C12.98 23.4298 13.54 23.1198 13.85 22.4898H15.7C15.46 23.2298 15.03 23.8098 14.41 24.2498C13.79 24.6798 13.05 24.8998 12.18 24.8998C11.42 24.8998 10.77 24.7398 10.22 24.4098H10.24ZM13.94 20.3598C13.85 19.8598 13.65 19.4598 13.35 19.1798C13.05 18.8898 12.67 18.7498 12.2 18.7498C11.73 18.7498 11.34 18.8898 11.04 19.1798C10.74 19.4598 10.54 19.8598 10.45 20.3598H13.94Z" fill="white"/>
<path d="M20.0201 22.4997L18.4401 24.7297H16.3L18.9501 20.9897L16.4401 17.4497H18.6101L20.0401 19.4497L21.4501 17.4497H23.59L21.1 20.9797L23.76 24.7297H21.59L20.0201 22.4997Z" fill="white"/>
<path d="M24.52 14.6499H26.42V16.3399H24.52V14.6499ZM24.52 17.4499H26.42V24.7299H24.52V17.4499Z" fill="white"/>
<path d="M30.5101 15.21V17.45H32.3301V18.89H30.5101V22.61C30.5101 22.84 30.5601 23.01 30.6601 23.12C30.7601 23.23 30.9401 23.28 31.1901 23.28H32.3201V24.72H30.7001C30.0201 24.72 29.5001 24.58 29.1401 24.31C28.7801 24.04 28.6001 23.53 28.6001 22.81V18.89H27.3401V17.45H28.6001V15.21H30.5001H30.5101Z" fill="white"/>
</g>
<defs>
<clipPath id="clip0_2919_31988">
<rect width="40.6" height="40.6" fill="white"/>
</clipPath>
</defs>
</svg>
