<svg width="50" height="58" viewBox="0 0 50 58" fill="none" xmlns="http://www.w3.org/2000/svg">
<path d="M22.7488 5.62891C35.1703 4.24958 45.6923 13.9404 45.698 26.0898L45.6931 26.54C45.4921 35.9372 39.0142 43.7593 30.2849 46.0234L27.5808 50.835C26.4977 52.7646 23.7099 52.7645 22.6267 50.835L19.9216 46.0234C10.3653 43.5479 3.48829 34.3907 4.62769 23.8193C5.64254 14.3406 13.2713 6.67763 22.7488 5.62988V5.62891Z" fill="#D5E602" stroke="white" stroke-width="3"/>
<path d="M22.0062 31V19.3636H26.5971C27.4797 19.3636 28.2316 19.5322 28.8528 19.8693C29.474 20.2027 29.9475 20.6667 30.2733 21.2614C30.6028 21.8523 30.7676 22.5341 30.7676 23.3068C30.7676 24.0795 30.6009 24.7614 30.2676 25.3523C29.9343 25.9432 29.4513 26.4034 28.8187 26.733C28.1899 27.0625 27.4286 27.2273 26.5346 27.2273H23.6085V25.2557H26.1369C26.6104 25.2557 27.0006 25.1742 27.3074 25.0114C27.618 24.8447 27.849 24.6155 28.0006 24.3239C28.1559 24.0284 28.2335 23.6894 28.2335 23.3068C28.2335 22.9205 28.1559 22.5833 28.0006 22.2955C27.849 22.0038 27.618 21.7784 27.3074 21.6193C26.9968 21.4564 26.6028 21.375 26.1256 21.375H24.4665V31H22.0062Z" fill="#090D1C"/>
</svg>
