<svg width="50" height="58" viewBox="0 0 50 58" fill="none" xmlns="http://www.w3.org/2000/svg">
<path d="M22.7488 5.62891C35.1703 4.24958 45.6923 13.9404 45.698 26.0898L45.6931 26.54C45.4921 35.9372 39.0142 43.7593 30.2849 46.0234L27.5808 50.835C26.4977 52.7646 23.7099 52.7645 22.6267 50.835L19.9216 46.0234C10.3653 43.5479 3.48829 34.3907 4.62769 23.8193C5.64254 14.3406 13.2713 6.67763 22.7488 5.62988V5.62891Z" fill="#1795EB" stroke="white" stroke-width="3"/>
<path d="M21.9381 31V29.2273L26.0801 25.392C26.4324 25.0511 26.7278 24.7443 26.9665 24.4716C27.2089 24.1989 27.3926 23.9318 27.5176 23.6705C27.6426 23.4053 27.7051 23.1193 27.7051 22.8125C27.7051 22.4716 27.6274 22.178 27.4721 21.9318C27.3168 21.6818 27.1047 21.4905 26.8358 21.358C26.5668 21.2216 26.2619 21.1534 25.921 21.1534C25.5649 21.1534 25.2543 21.2254 24.9892 21.3693C24.724 21.5133 24.5195 21.7197 24.3756 21.9886C24.2316 22.2576 24.1596 22.5777 24.1596 22.9489H21.8244C21.8244 22.1875 21.9968 21.5265 22.3415 20.9659C22.6862 20.4053 23.1691 19.9716 23.7903 19.6648C24.4115 19.358 25.1274 19.2045 25.9381 19.2045C26.7714 19.2045 27.4968 19.3523 28.1142 19.6477C28.7354 19.9394 29.2184 20.3447 29.5631 20.8636C29.9078 21.3826 30.0801 21.9773 30.0801 22.6477C30.0801 23.0871 29.993 23.5208 29.8187 23.9489C29.6483 24.3769 29.3434 24.8523 28.904 25.375C28.4646 25.8939 27.8453 26.517 27.046 27.2443L25.3471 28.9091V28.9886H30.2335V31H21.9381Z" fill="white"/>
</svg>
