<svg width="50" height="58" viewBox="0 0 50 58" fill="none" xmlns="http://www.w3.org/2000/svg">
<path d="M22.7488 5.62891C35.1703 4.24958 45.6923 13.9404 45.698 26.0898L45.6931 26.54C45.4921 35.9372 39.0142 43.7593 30.2849 46.0234L27.5808 50.835C26.4977 52.7646 23.7099 52.7645 22.6267 50.835L19.9216 46.0234C10.3653 43.5479 3.48829 34.3907 4.62769 23.8193C5.64254 14.3406 13.2713 6.67763 22.7488 5.62988V5.62891Z" fill="#1795EB" stroke="white" stroke-width="3"/>
<path d="M26.2392 31.1591C25.3907 31.1591 24.635 31.0133 23.9721 30.7216C23.3131 30.4261 22.7922 30.0208 22.4096 29.5057C22.0309 28.9867 21.8358 28.3883 21.8244 27.7102H24.3017C24.3168 27.9943 24.4096 28.2443 24.5801 28.4602C24.7543 28.6723 24.9854 28.8371 25.2733 28.9545C25.5612 29.072 25.885 29.1307 26.2449 29.1307C26.6199 29.1307 26.9513 29.0644 27.2392 28.9318C27.5271 28.7992 27.7524 28.6155 27.9153 28.3807C28.0782 28.1458 28.1596 27.875 28.1596 27.5682C28.1596 27.2576 28.0725 26.983 27.8983 26.7443C27.7278 26.5019 27.4816 26.3125 27.1596 26.1761C26.8415 26.0398 26.4627 25.9716 26.0233 25.9716H24.9381V24.1648H26.0233C26.3945 24.1648 26.7221 24.1004 27.0062 23.9716C27.2941 23.8428 27.5176 23.6648 27.6767 23.4375C27.8358 23.2064 27.9153 22.9375 27.9153 22.6307C27.9153 22.339 27.8453 22.0833 27.7051 21.8636C27.5687 21.6402 27.3756 21.4659 27.1256 21.3409C26.8793 21.2159 26.5915 21.1534 26.2619 21.1534C25.9286 21.1534 25.6237 21.214 25.3471 21.3352C25.0706 21.4527 24.849 21.6212 24.6824 21.8409C24.5157 22.0606 24.4267 22.3182 24.4153 22.6136H22.0574C22.0687 21.9432 22.26 21.3523 22.6312 20.8409C23.0024 20.3295 23.5024 19.9299 24.1312 19.642C24.7638 19.3504 25.4778 19.2045 26.2733 19.2045C27.0763 19.2045 27.779 19.3504 28.3812 19.642C28.9835 19.9337 29.4513 20.3277 29.7846 20.8239C30.1218 21.3163 30.2884 21.8693 30.2846 22.483C30.2884 23.1345 30.0858 23.678 29.6767 24.1136C29.2714 24.5492 28.743 24.8258 28.0915 24.9432V25.0341C28.9475 25.1439 29.599 25.4413 30.046 25.9261C30.4968 26.4072 30.7203 27.0095 30.7165 27.733C30.7203 28.3958 30.529 28.9848 30.1426 29.5C29.76 30.0152 29.2316 30.4205 28.5574 30.7159C27.8831 31.0114 27.1104 31.1591 26.2392 31.1591Z" fill="white"/>
</svg>
