<svg width="50" height="58" viewBox="0 0 50 58" fill="none" xmlns="http://www.w3.org/2000/svg">
<path d="M22.7488 5.62891C35.1703 4.24958 45.6923 13.9404 45.698 26.0898L45.6931 26.54C45.4921 35.9372 39.0142 43.7593 30.2849 46.0234L27.5808 50.835C26.4977 52.7646 23.7099 52.7645 22.6267 50.835L19.9216 46.0234C10.3653 43.5479 3.48829 34.3907 4.62769 23.8193C5.64254 14.3406 13.2713 6.67763 22.7488 5.62988V5.62891Z" fill="#1795EB" stroke="white" stroke-width="3"/>
<path d="M20.3388 28.9545V27.017L25.1968 19.3636H26.8673V22.0455H25.8786L22.8161 26.892V26.983H29.7195V28.9545H20.3388ZM25.9241 31V28.3636L25.9695 27.5057V19.3636H28.2763V31H25.9241Z" fill="white"/>
</svg>
