<svg width="50" height="58" viewBox="0 0 50 58" fill="none" xmlns="http://www.w3.org/2000/svg">
<path d="M22.7488 5.62891C35.1703 4.24958 45.6923 13.9404 45.698 26.0898L45.6931 26.54C45.4921 35.9372 39.0142 43.7593 30.2849 46.0234L27.5808 50.835C26.4977 52.7646 23.7099 52.7645 22.6267 50.835L19.9216 46.0234C10.3653 43.5479 3.48829 34.3907 4.62769 23.8193C5.64254 14.3406 13.2713 6.67763 22.7488 5.62988V5.62891Z" fill="#1795EB" stroke="white" stroke-width="3"/>
<path d="M25.0306 31.1591C24.2276 31.1591 23.5117 31.0114 22.8829 30.7159C22.2579 30.4205 21.7617 30.0133 21.3942 29.4943C21.0268 28.9754 20.8355 28.3807 20.8204 27.7102H23.2067C23.2333 28.161 23.4227 28.5265 23.7749 28.8068C24.1272 29.0871 24.5458 29.2273 25.0306 29.2273C25.417 29.2273 25.7579 29.142 26.0533 28.9716C26.3526 28.7973 26.5855 28.5568 26.7522 28.25C26.9227 27.9394 27.0079 27.5833 27.0079 27.1818C27.0079 26.7727 26.9208 26.4129 26.7465 26.1023C26.5761 25.7917 26.3393 25.5492 26.0363 25.375C25.7333 25.2008 25.3867 25.1117 24.9965 25.108C24.6556 25.108 24.3242 25.178 24.0022 25.3182C23.684 25.4583 23.4359 25.6496 23.2579 25.892L21.0704 25.5L21.6215 19.3636H28.7352V21.375H23.6499L23.3488 24.2898H23.417C23.6215 24.0019 23.9302 23.7633 24.3431 23.5739C24.756 23.3845 25.2181 23.2898 25.7295 23.2898C26.4302 23.2898 27.0552 23.4545 27.6045 23.7841C28.1537 24.1136 28.5874 24.5663 28.9056 25.142C29.2238 25.714 29.381 26.3731 29.3772 27.1193C29.381 27.9034 29.1992 28.6004 28.8317 29.2102C28.4681 29.8163 27.9586 30.2936 27.3033 30.642C26.6518 30.9867 25.8942 31.1591 25.0306 31.1591Z" fill="white"/>
</svg>
