<svg width="50" height="58" viewBox="0 0 50 58" fill="none" xmlns="http://www.w3.org/2000/svg">
<path d="M22.7488 5.62891C35.1703 4.24958 45.6923 13.9404 45.698 26.0898L45.6931 26.54C45.4921 35.9372 39.0142 43.7593 30.2849 46.0234L27.5808 50.835C26.4977 52.7646 23.7099 52.7645 22.6267 50.835L19.9216 46.0234C10.3653 43.5479 3.48829 34.3907 4.62769 23.8193C5.64254 14.3406 13.2713 6.67763 22.7488 5.62988V5.62891Z" fill="#1795EB" stroke="white" stroke-width="3"/>
<path d="M25.1215 31.1591C24.523 31.1553 23.9454 31.0549 23.3886 30.858C22.8355 30.661 22.3393 30.3409 21.8999 29.8977C21.4605 29.4545 21.112 28.8674 20.8545 28.1364C20.6007 27.4053 20.4738 26.5076 20.4738 25.4432C20.4776 24.4659 20.5893 23.5928 20.809 22.8239C21.0325 22.0511 21.3507 21.3958 21.7636 20.858C22.1802 20.3201 22.6783 19.911 23.2579 19.6307C23.8374 19.3466 24.487 19.2045 25.2067 19.2045C25.9833 19.2045 26.6689 19.3561 27.2636 19.6591C27.8583 19.9583 28.3355 20.3655 28.6954 20.8807C29.059 21.3958 29.2787 21.9735 29.3545 22.6136H26.9283C26.8336 22.2083 26.6348 21.8902 26.3317 21.6591C26.0287 21.428 25.6537 21.3125 25.2067 21.3125C24.4492 21.3125 23.8734 21.642 23.4795 22.3011C23.0893 22.9602 22.8905 23.8561 22.8829 24.9886H22.9624C23.1367 24.6439 23.3715 24.3504 23.667 24.108C23.9662 23.8617 24.3052 23.6742 24.684 23.5455C25.0666 23.4129 25.47 23.3466 25.8942 23.3466C26.5836 23.3466 27.1973 23.5095 27.7352 23.8352C28.273 24.1572 28.6973 24.6004 29.0079 25.1648C29.3185 25.7292 29.4738 26.375 29.4738 27.1023C29.4738 27.8902 29.2901 28.5909 28.9227 29.2045C28.559 29.8182 28.0495 30.2992 27.3942 30.6477C26.7427 30.9924 25.9852 31.1629 25.1215 31.1591ZM25.1102 29.2273C25.4889 29.2273 25.828 29.1364 26.1272 28.9545C26.4264 28.7727 26.6613 28.5265 26.8317 28.2159C27.0022 27.9053 27.0874 27.5568 27.0874 27.1705C27.0874 26.7841 27.0022 26.4375 26.8317 26.1307C26.6651 25.8239 26.434 25.5795 26.1386 25.3977C25.8431 25.2159 25.506 25.125 25.1272 25.125C24.8431 25.125 24.5799 25.178 24.3374 25.2841C24.0988 25.3902 23.8886 25.5379 23.7067 25.7273C23.5287 25.9167 23.3886 26.1364 23.2863 26.3864C23.184 26.6326 23.1329 26.8958 23.1329 27.1761C23.1329 27.5511 23.2181 27.8939 23.3886 28.2045C23.5628 28.5152 23.7977 28.7633 24.0931 28.9489C24.3924 29.1345 24.7314 29.2273 25.1102 29.2273Z" fill="white"/>
</svg>
