<svg width="50" height="58" viewBox="0 0 50 58" fill="none" xmlns="http://www.w3.org/2000/svg">
<path d="M22.7488 5.62891C35.1703 4.24958 45.6923 13.9404 45.698 26.0898L45.6931 26.54C45.4921 35.9372 39.0142 43.7593 30.2849 46.0234L27.5808 50.835C26.4977 52.7646 23.7099 52.7645 22.6267 50.835L19.9216 46.0234C10.3653 43.5479 3.48829 34.3907 4.62769 23.8193C5.64254 14.3406 13.2713 6.67763 22.7488 5.62988V5.62891Z" fill="#1795EB" stroke="white" stroke-width="3"/>
<path d="M24.9887 31.1591C24.1137 31.1591 23.3353 31.017 22.6535 30.733C21.9754 30.4451 21.4433 30.053 21.0569 29.5568C20.6705 29.0606 20.4773 28.4981 20.4773 27.8693C20.4773 27.3845 20.5872 26.9394 20.8069 26.5341C21.0304 26.125 21.3334 25.786 21.716 25.517C22.0986 25.2443 22.5266 25.0701 23.0001 24.9943V24.9148C22.3789 24.7898 21.8751 24.4886 21.4887 24.0114C21.1023 23.5303 20.9092 22.9716 20.9092 22.3352C20.9092 21.733 21.0853 21.197 21.4376 20.7273C21.7898 20.2538 22.2728 19.8826 22.8864 19.6136C23.5039 19.3409 24.2046 19.2045 24.9887 19.2045C25.7728 19.2045 26.4717 19.3409 27.0853 19.6136C27.7027 19.8864 28.1876 20.2595 28.5398 20.733C28.8921 21.2027 29.0701 21.7367 29.0739 22.3352C29.0701 22.9754 28.8732 23.5341 28.483 24.0114C28.0929 24.4886 27.5929 24.7898 26.983 24.9148V24.9943C27.4489 25.0701 27.8713 25.2443 28.2501 25.517C28.6326 25.786 28.9357 26.125 29.1592 26.5341C29.3864 26.9394 29.502 27.3845 29.5058 27.8693C29.502 28.4981 29.3069 29.0606 28.9205 29.5568C28.5342 30.053 28.0001 30.4451 27.3183 30.733C26.6402 31.017 25.8637 31.1591 24.9887 31.1591ZM24.9887 29.3523C25.3789 29.3523 25.7198 29.2822 26.0114 29.142C26.3031 28.9981 26.5304 28.8011 26.6933 28.5511C26.8599 28.2973 26.9433 28.0057 26.9433 27.6761C26.9433 27.339 26.858 27.0417 26.6876 26.7841C26.5171 26.5227 26.2861 26.3182 25.9944 26.1705C25.7027 26.0189 25.3675 25.9432 24.9887 25.9432C24.6137 25.9432 24.2785 26.0189 23.983 26.1705C23.6876 26.3182 23.4546 26.5227 23.2842 26.7841C23.1175 27.0417 23.0342 27.339 23.0342 27.6761C23.0342 28.0057 23.1156 28.2973 23.2785 28.5511C23.4414 28.8011 23.6705 28.9981 23.966 29.142C24.2614 29.2822 24.6023 29.3523 24.9887 29.3523ZM24.9887 24.1534C25.3145 24.1534 25.6042 24.0871 25.858 23.9545C26.1118 23.822 26.3107 23.6383 26.4546 23.4034C26.5986 23.1686 26.6705 22.8977 26.6705 22.5909C26.6705 22.2879 26.5986 22.0227 26.4546 21.7955C26.3107 21.5644 26.1137 21.3845 25.8637 21.2557C25.6137 21.1231 25.322 21.0568 24.9887 21.0568C24.6592 21.0568 24.3675 21.1231 24.1137 21.2557C23.8599 21.3845 23.6611 21.5644 23.5171 21.7955C23.377 22.0227 23.3069 22.2879 23.3069 22.5909C23.3069 22.8977 23.3789 23.1686 23.5228 23.4034C23.6667 23.6383 23.8656 23.822 24.1194 23.9545C24.3732 24.0871 24.6629 24.1534 24.9887 24.1534Z" fill="white"/>
</svg>
