<svg width="50" height="58" viewBox="0 0 50 58" fill="none" xmlns="http://www.w3.org/2000/svg">
<path d="M22.7488 5.62891C35.1703 4.24958 45.6923 13.9404 45.698 26.0898L45.6931 26.54C45.4921 35.9372 39.0142 43.7593 30.2849 46.0234L27.5808 50.835C26.4977 52.7646 23.7099 52.7645 22.6267 50.835L19.9216 46.0234C10.3653 43.5479 3.48829 34.3907 4.62769 23.8193C5.64254 14.3406 13.2713 6.67763 22.7488 5.62988V5.62891Z" fill="#34F461" stroke="white" stroke-width="3"/>
<path d="M20.4167 22.2502V16.7502C20.4167 16.4904 20.5047 16.2729 20.6807 16.0975C20.8567 15.9221 21.0743 15.8341 21.3334 15.8335C21.5925 15.8329 21.8104 15.9209 21.987 16.0975C22.1636 16.2741 22.2513 16.4917 22.2501 16.7502V22.2502H23.1667V16.7502C23.1667 16.4904 23.2547 16.2729 23.4307 16.0975C23.6067 15.9221 23.8243 15.8341 24.0834 15.8335C24.3425 15.8329 24.5604 15.9209 24.737 16.0975C24.9136 16.2741 25.0013 16.4917 25.0001 16.7502V22.2502C25.0001 23.1057 24.7367 23.8543 24.2099 24.496C23.6831 25.1377 23.0299 25.5654 22.2501 25.7793V33.2502C22.2501 33.5099 22.1621 33.7277 21.9861 33.9037C21.8101 34.0797 21.5925 34.1674 21.3334 34.1668C21.0743 34.1662 20.8567 34.0782 20.6807 33.9028C20.5047 33.7274 20.4167 33.5099 20.4167 33.2502V25.7793C19.6376 25.5654 18.9846 25.1377 18.4578 24.496C17.9311 23.8543 17.6674 23.1057 17.6667 22.2502V16.7502C17.6667 16.4904 17.7547 16.2729 17.9307 16.0975C18.1067 15.9221 18.3243 15.8341 18.5834 15.8335C18.8425 15.8329 19.0604 15.9209 19.237 16.0975C19.4136 16.2741 19.5013 16.4917 19.5001 16.7502V22.2502H20.4167ZM29.5834 26.8335H27.7501C27.4904 26.8335 27.2728 26.7455 27.0974 26.5695C26.922 26.3935 26.834 26.1759 26.8334 25.9168V20.4168C26.8334 19.3474 27.227 18.3161 28.0141 17.3231C28.8012 16.33 29.6146 15.8335 30.4542 15.8335C30.7292 15.8335 30.9584 15.9404 31.1417 16.1543C31.3251 16.3682 31.4167 16.6203 31.4167 16.9106V33.2502C31.4167 33.5099 31.3287 33.7277 31.1527 33.9037C30.9767 34.0797 30.7592 34.1674 30.5001 34.1668C30.241 34.1662 30.0234 34.0782 29.8474 33.9028C29.6714 33.7274 29.5834 33.5099 29.5834 33.2502V26.8335Z" fill="#1D1616"/>
</svg>
