<svg width="50" height="58" viewBox="0 0 50 58" fill="none" xmlns="http://www.w3.org/2000/svg">
<path d="M22.7488 5.62891C35.1703 4.24958 45.6923 13.9404 45.698 26.0898L45.6931 26.54C45.4921 35.9372 39.0142 43.7593 30.2849 46.0234L27.5808 50.835C26.4977 52.7646 23.7099 52.7645 22.6267 50.835L19.9216 46.0234C10.3653 43.5479 3.48829 34.3907 4.62769 23.8193C5.64254 14.3406 13.2713 6.67763 22.7488 5.62988V5.62891Z" fill="#10AF14" stroke="white" stroke-width="3"/>
<path d="M29.383 21.712L26.178 19.384C25.818 19.1211 25.3805 18.9859 24.935 19C24.3916 19.0141 23.8661 19.1969 23.4313 19.523C22.9964 19.8491 22.6738 20.3024 22.508 20.82C22.322 21.4033 22.152 21.797 21.998 22.001C21.5323 22.6215 20.9287 23.1252 20.2348 23.4721C19.5409 23.8191 18.7758 23.9998 18 24V26C19.0325 26.0007 20.0523 25.7727 20.9861 25.3323C21.92 24.8919 22.7447 24.2501 23.401 23.453L24.099 27.409L22.038 29.138L19.815 35.246L21.695 35.93L23.734 30.326L27.124 27.481C27.4024 27.2565 27.6154 26.9614 27.741 26.6265C27.8666 26.2916 27.9001 25.9292 27.838 25.577L27.329 22.692L28.006 23.184L30.133 26.112L31.751 24.936L29.4 21.7L29.383 21.712ZM23.5 18.5C24.0304 18.5 24.5391 18.2893 24.9142 17.9142C25.2893 17.5391 25.5 17.0304 25.5 16.5C25.5 15.9696 25.2893 15.4609 24.9142 15.0858C24.5391 14.7107 24.0304 14.5 23.5 14.5C22.9695 14.5 22.4608 14.7107 22.0858 15.0858C21.7107 15.4609 21.5 15.9696 21.5 16.5C21.5 17.0304 21.7107 17.5391 22.0858 17.9142C22.4608 18.2893 22.9695 18.5 23.5 18.5ZM26.47 31.681L29.684 35.511L31.216 34.226L28.241 30.68L27.495 28.5L25.704 30L26.47 31.681Z" fill="white"/>
</svg>
